# xmcd CD database file
#
# Track frame offsets:
#	150
#	20112
#	42140
#	60377
#	79955
#	95657
#	131760
#	159370
#
# Disc length: 2303 seconds
#
# Revision: 0
# Processed by: cddbd v1.5.1PL2 Copyright (c) Steve Scherf et al.
# Submitted via: CDex 1.51
#
DISCID=6308fd08
DTITLE=Buddy Rich - Stick It
DYEAR=1973
DGENRE=Jazz
TTITLE0=Space Shuttle
TTITLE1=God Bless the Child
TTITLE2=Best Coast
TTITLE3=Wave
TTITLE4=Something
TTITLE5=Uncle Albert - Admiral Halsey
TTITLE6=Sassy Strut
TTITLE7=Bein' Green
EXTD=YEAR: 1973
EXTT0=
EXTT1=
EXTT2=
EXTT3=
EXTT4=
EXTT5=
EXTT6=
EXTT7=
PLAYORDER=
